<?xml version="1.0" encoding="utf-8"?>
<!-- Generator: Adobe Illustrator 28.0.0, SVG Export Plug-In . SVG Version: 6.00 Build 0)  -->
<svg version="1.1" id="_レイヤー_2" xmlns="http://www.w3.org/2000/svg" xmlns:xlink="http://www.w3.org/1999/xlink" x="0px"
	 y="0px" viewBox="0 0 71.6 68.2" style="enable-background:new 0 0 71.6 68.2;" xml:space="preserve">
<style type="text/css">
	.st0{fill:#FFFFFF;}
</style>
<path class="st0" d="M0,0c23.6,6.7,46.5,7.4,71.6,0L71,15.1c-4.5,1.8-7.6,6.1-7.6,11.2c0,4.7,2.7,8.8,6.7,10.8L71,51.4
	c-23-4.4-45.2-3.7-70.4,0L1.5,37c4-2,6.7-6.1,6.7-10.8c0-5.1-3.2-9.4-7.6-11.2L0,0z"/>
<path d="M40.8,31.5c-0.3,0.8-0.7,1.4-1.2,1.9s-1.1,0.8-1.7,1c-0.6,0.2-1.3,0.3-1.9,0.2c-0.7,0-1.2-0.2-1.8-0.5
	c-0.5-0.3-1-0.7-1.3-1.2s-0.5-1.1-0.5-1.7v-9.3c0-0.6,0.2-1.2,0.5-1.7s0.8-0.8,1.3-1.1c0.6-0.3,1.2-0.4,1.8-0.5s1.3,0,1.9,0.2
	c0.6,0.2,1.2,0.5,1.7,1s0.8,1,1.1,1.8l6.8-2.1c-0.4-1.5-1-2.8-1.8-3.8s-1.7-1.8-2.8-2.4s-2.2-1.1-3.3-1.3c-1.1-0.3-2.2-0.4-3.3-0.4
	c-1.2,0-2.4,0.1-3.5,0.4c-1.1,0.3-2.2,0.7-3.2,1.2s-1.9,1.2-2.7,2.1c-0.8,0.8-1.4,1.8-1.8,2.9c-0.5,1.1-0.7,2.4-0.7,3.8v9.3
	c0,1.4,0.2,2.6,0.7,3.8c0.4,1.1,1,2.1,1.8,2.9c0.8,0.8,1.7,1.5,2.7,2.1s2.1,1,3.2,1.2c1.1,0.2,2.3,0.4,3.5,0.4
	c1.1,0,2.2-0.1,3.3-0.4c1.1-0.3,2.2-0.7,3.3-1.3s2-1.5,2.9-2.5s1.5-2.3,2.1-3.8L40.8,31.5L40.8,31.5z"/>
<path class="st0" d="M6.1,61.4c-0.1,0.3-0.2,0.5-0.4,0.7S5.3,62.4,5,62.5c-0.2,0.1-0.5,0.1-0.7,0.1s-0.5-0.1-0.7-0.2
	S3.3,62.2,3.2,62C3,61.8,3,61.6,3,61.4V58c0-0.2,0.1-0.5,0.2-0.6c0.1-0.2,0.3-0.3,0.5-0.4c0.2-0.1,0.4-0.2,0.7-0.2
	c0.2,0,0.5,0,0.7,0.1s0.4,0.2,0.6,0.3c0.2,0.2,0.3,0.4,0.4,0.7l2.5-0.8c-0.1-0.5-0.4-1-0.7-1.4s-0.6-0.7-1-0.9s-0.8-0.4-1.2-0.5
	s-0.8-0.2-1.2-0.2c-0.4,0-0.9,0-1.3,0.2c-0.4,0.1-0.8,0.2-1.2,0.5c-0.4,0.2-0.7,0.5-1,0.8s-0.5,0.7-0.7,1.1S0.1,57.5,0.1,58v3.4
	c0,0.5,0.1,1,0.2,1.4c0.2,0.4,0.4,0.8,0.7,1.1c0.3,0.3,0.6,0.6,1,0.8s0.8,0.3,1.2,0.4s0.9,0.2,1.3,0.2s0.8-0.1,1.2-0.2
	c0.4-0.1,0.8-0.3,1.2-0.5s0.7-0.5,1.1-0.9c0.3-0.4,0.6-0.8,0.8-1.4L6.1,61.4L6.1,61.4z"/>
<path class="st0" d="M13,56.8c0.2,0,0.4,0,0.7,0.1c0.2,0.1,0.4,0.2,0.5,0.4s0.2,0.3,0.2,0.6v3.6c0,0.2-0.1,0.4-0.2,0.6
	c-0.1,0.2-0.3,0.3-0.5,0.4s-0.4,0.2-0.7,0.2l0,0v2.6l0,0c0.6,0,1.1-0.1,1.6-0.2c0.5-0.2,1-0.4,1.4-0.7s0.7-0.7,1-1.2s0.4-1,0.4-1.7
	V58c0-0.6-0.1-1.2-0.4-1.7c-0.2-0.5-0.6-0.9-1-1.2s-0.9-0.6-1.4-0.7s-1-0.2-1.6-0.2l0,0V56.8L13,56.8z M13,62.6
	c-0.2,0-0.5,0-0.7-0.2c-0.2-0.1-0.4-0.2-0.5-0.4s-0.2-0.4-0.2-0.6v-3.6c0-0.2,0.1-0.4,0.2-0.6c0.1-0.2,0.3-0.3,0.5-0.4
	c0.2-0.1,0.4-0.1,0.7-0.1V54c-0.6,0-1.1,0.1-1.6,0.2c-0.5,0.2-1,0.4-1.4,0.7s-0.7,0.7-1,1.2c-0.2,0.5-0.4,1-0.4,1.7v3.5
	C8.6,62,8.7,62.5,9,63s0.6,0.9,1,1.2c0.4,0.3,0.9,0.6,1.4,0.7c0.5,0.2,1,0.2,1.6,0.2C13,65.2,13,62.6,13,62.6z"/>
<path class="st0" d="M42.5,65.2c0.4,0,0.8,0,1.1-0.1c0.4-0.1,0.8-0.2,1.2-0.4c0.4-0.2,0.7-0.4,1-0.8c0.3-0.3,0.5-0.7,0.7-1.1
	s0.2-0.9,0.2-1.4v-3.7c-0.1-0.7-0.2-1.3-0.5-1.8s-0.6-0.9-1-1.2s-0.9-0.5-1.4-0.6s-1-0.2-1.5-0.2v2.2c0.2,0,0.5,0.1,0.7,0.2
	c0.2,0.1,0.4,0.2,0.5,0.4s0.2,0.4,0.2,0.7v4.2c0,0.2-0.1,0.5-0.3,0.6c-0.2,0.2-0.3,0.3-0.5,0.4c-0.2,0.1-0.4,0.2-0.6,0.2v2.4H42.5z
	 M41,67.3v-2.5c0.4,0.2,0.8,0.3,1.2,0.3c0.1,0,0.1,0,0.2,0v-2.2c0,0,0,0-0.1,0c-0.2,0-0.5,0-0.7,0s-0.5-0.1-0.7-0.2v-6.3
	c0.2-0.1,0.4-0.2,0.7-0.2s0.5,0,0.8,0l0,0V54c0,0-0.1,0-0.2,0c-0.5,0-0.9,0-1.4,0.1s-1,0.2-1.4,0.3s-0.9,0.3-1.4,0.4v13.3
	C39.1,67.9,40.1,67.6,41,67.3L41,67.3z"/>
<path class="st0" d="M51.6,65.3c0.1,0,0.2,0,0.3,0c0.4,0,0.9,0,1.4-0.1s0.9-0.2,1.4-0.3c0.5-0.1,0.9-0.3,1.3-0.4v-6.7
	c0-0.6-0.1-1.1-0.3-1.6s-0.5-0.8-0.9-1.2s-0.8-0.5-1.3-0.7S52.5,54,52,54c-0.1,0-0.2,0-0.4,0v2.3l0,0c0.3,0,0.5,0.1,0.8,0.3
	s0.4,0.4,0.5,0.6c0.1,0.3,0.2,0.6,0.2,1c-0.3-0.1-0.6-0.2-0.9-0.3c-0.2,0-0.5-0.1-0.7-0.1V60c0,0,0.1,0,0.2,0c0.2,0,0.5,0,0.7,0
	s0.4,0.1,0.6,0.2v2.5c-0.2,0-0.4,0.1-0.6,0.1c-0.2,0-0.4,0-0.6,0c-0.1,0-0.2,0-0.3,0L51.6,65.3L51.6,65.3z M51.4,58.1
	c-0.7,0-1.3,0.1-1.8,0.3s-0.9,0.5-1.3,0.8c-0.3,0.3-0.6,0.7-0.8,1.2c-0.2,0.4-0.2,0.9-0.2,1.3c0,0.5,0.1,0.9,0.3,1.3
	c0.2,0.4,0.5,0.8,0.8,1.2c0.4,0.3,0.8,0.6,1.4,0.8c0.5,0.2,1,0.3,1.6,0.3v-2.2c-0.3,0-0.5-0.1-0.7-0.2c-0.2-0.1-0.5-0.3-0.6-0.5
	s-0.2-0.4-0.2-0.7c0-0.2,0-0.5,0.2-0.7c0.1-0.2,0.3-0.4,0.5-0.5s0.5-0.2,0.8-0.2V58.1C51.5,58.1,51.4,58.1,51.4,58.1L51.4,58.1
	L51.4,58.1z M51.6,54.1c-0.4,0-0.8,0.1-1.2,0.2c-0.5,0.1-1,0.3-1.5,0.6s-0.8,0.6-1.2,1.1l1.4,1.3c0.2-0.2,0.4-0.4,0.7-0.5
	s0.5-0.2,0.8-0.3s0.6-0.1,0.8,0C51.6,56.4,51.6,54.1,51.6,54.1z"/>
<path class="st0" d="M56.5,63.4c0.3,0.5,0.7,0.8,1.1,1.1s0.8,0.5,1.3,0.6s1,0.2,1.5,0.2s1-0.1,1.5-0.2s0.9-0.4,1.2-0.7
	c0.4-0.3,0.7-0.7,0.9-1.1c0.2-0.4,0.3-1,0.3-1.5s-0.1-0.9-0.3-1.3c-0.2-0.4-0.4-0.7-0.8-0.9c-0.3-0.2-0.7-0.4-1-0.6
	c-0.4-0.2-0.7-0.3-1.1-0.4c-0.1,0-0.3-0.1-0.4-0.1c-0.2-0.1-0.3-0.1-0.5-0.2s-0.3-0.2-0.4-0.3s-0.2-0.3-0.1-0.4
	c0-0.3,0.1-0.5,0.3-0.6s0.3-0.2,0.6-0.2s0.5,0,0.7,0c0.2,0.1,0.5,0.1,0.7,0.2c0.2,0.1,0.4,0.2,0.5,0.3l1.5-2
	c-0.4-0.3-0.8-0.5-1.2-0.7s-0.8-0.3-1.2-0.3s-0.8-0.1-1.1-0.1c-0.7,0-1.2,0.1-1.7,0.3s-0.9,0.5-1.2,0.9s-0.5,0.8-0.7,1.2
	c-0.1,0.4-0.2,0.9-0.1,1.3c0.1,0.5,0.2,0.9,0.5,1.3s0.7,0.8,1.2,1.1s1.1,0.5,1.8,0.7c0.3,0,0.6,0.2,0.8,0.3s0.3,0.3,0.3,0.5
	s0,0.4-0.1,0.6c-0.1,0.2-0.3,0.4-0.5,0.4c-0.2,0.1-0.5,0.1-0.9,0c-0.3-0.1-0.7-0.2-1.1-0.4c-0.4-0.2-0.7-0.4-1-0.8L56.5,63.4
	L56.5,63.4z"/>
<path class="st0" d="M63.8,63.4c0.3,0.5,0.7,0.8,1.1,1.1s0.8,0.5,1.3,0.6s0.9,0.2,1.5,0.2c0.5,0,1-0.1,1.5-0.2s0.9-0.4,1.2-0.7
	c0.4-0.3,0.7-0.7,0.9-1.1c0.2-0.4,0.3-1,0.3-1.5s-0.1-0.9-0.3-1.3c-0.2-0.4-0.4-0.7-0.8-0.9c-0.3-0.2-0.7-0.4-1-0.6
	s-0.7-0.3-1.1-0.4c-0.1,0-0.3-0.1-0.4-0.1c-0.2-0.1-0.3-0.1-0.5-0.2c-0.2-0.1-0.3-0.2-0.4-0.3S67,57.6,67,57.5
	c0-0.3,0.1-0.5,0.3-0.6c0.2-0.1,0.3-0.2,0.6-0.2s0.4,0,0.7,0c0.2,0.1,0.5,0.1,0.7,0.2c0.2,0.1,0.4,0.2,0.5,0.3l1.4-2
	c-0.4-0.3-0.8-0.5-1.2-0.7c-0.4-0.2-0.8-0.3-1.2-0.3s-0.8-0.1-1.1-0.1c-0.7,0-1.2,0.1-1.7,0.3s-0.9,0.5-1.2,0.9s-0.5,0.8-0.7,1.2
	c-0.1,0.5-0.1,1,0,1.4c0.1,0.5,0.2,0.9,0.5,1.3s0.7,0.8,1.2,1.1s1.1,0.5,1.8,0.7c0.3,0,0.6,0.2,0.8,0.3c0.2,0.1,0.3,0.3,0.3,0.5
	c0.1,0.2,0,0.4-0.1,0.6c-0.1,0.2-0.3,0.4-0.5,0.4c-0.2,0.1-0.5,0.1-0.9,0s-0.7-0.2-1.1-0.4s-0.7-0.4-1-0.8L63.8,63.4L63.8,63.4z"/>
<path class="st0" d="M22.8,56.8c0.2,0,0.5,0,0.7,0.1s0.4,0.2,0.5,0.4s0.2,0.3,0.2,0.6v7.2h2.9v-7.2c0-0.6-0.1-1.2-0.4-1.7
	c-0.2-0.5-0.6-0.9-1-1.2s-0.9-0.6-1.4-0.7s-1-0.2-1.6-0.2c-0.5,0-1.1,0.1-1.6,0.2s-1,0.4-1.4,0.7s-0.8,0.7-1,1.2s-0.4,1-0.4,1.7v7.2
	h2.9v-7.2c0-0.2,0.1-0.4,0.2-0.6c0.1-0.2,0.3-0.3,0.5-0.4C22.3,56.9,22.5,56.8,22.8,56.8z"/>
<path class="st0" d="M32.6,56.8c0.2,0,0.5,0,0.7,0.1s0.4,0.2,0.5,0.4s0.2,0.3,0.2,0.6v7.2h2.9v-7.2c0-0.6-0.1-1.2-0.4-1.7
	c-0.2-0.5-0.6-0.9-1-1.2s-0.9-0.6-1.4-0.7s-1-0.2-1.6-0.2s-1.1,0.1-1.6,0.2s-1,0.4-1.4,0.7s-0.8,0.7-1,1.2s-0.4,1-0.4,1.7v7.2H31
	v-7.2c0-0.2,0.1-0.4,0.2-0.6c0.1-0.2,0.3-0.3,0.5-0.4C32.1,56.9,32.3,56.8,32.6,56.8L32.6,56.8z"/>
</svg>
